<svg width="1248" height="1191" viewBox="0 0 1248 1191" fill="none" xmlns="http://www.w3.org/2000/svg">
<path d="M614.548 64.342C628.072 64.342 641.291 68.3526 652.536 75.8667C663.78 83.3808 672.544 94.0609 677.719 106.556C682.895 119.052 684.249 132.802 681.61 146.067C678.972 159.332 672.46 171.517 662.897 181.081C653.335 190.644 641.151 197.157 627.888 199.796C614.624 202.434 600.876 201.08 588.382 195.904C575.888 190.728 565.209 181.964 557.696 170.718C550.182 159.472 546.172 146.251 546.172 132.726C546.169 123.745 547.935 114.851 551.37 106.552C554.805 98.2542 559.842 90.7143 566.192 84.3636C572.542 78.0129 580.081 72.976 588.378 69.5405C596.675 66.1051 605.568 64.3386 614.548 64.342ZM614.548 0.000244141C588.301 0.000244141 562.642 7.78446 540.818 22.3685C518.994 36.9526 501.984 57.6815 491.94 81.934C481.895 106.186 479.267 132.873 484.388 158.619C489.509 184.366 502.148 208.015 520.708 226.577C539.268 245.139 562.914 257.78 588.658 262.901C614.401 268.022 641.085 265.394 665.334 255.348C689.584 245.303 710.31 228.291 724.893 206.464C739.475 184.638 747.258 158.976 747.258 132.726C747.224 97.5352 733.232 63.7956 708.351 38.9121C683.47 14.0285 649.735 0.0341106 614.548 0.000244141Z" fill="#CB0404"/>
<path d="M327.001 164.781C320.172 177.663 309.406 188.024 296.273 194.354C283.14 200.683 268.328 202.648 253.999 199.963C239.67 197.279 226.574 190.084 216.623 179.429C206.672 168.775 200.386 155.218 198.683 140.738C196.98 126.258 199.949 111.612 207.156 98.9391C214.364 86.2659 225.433 76.2283 238.748 70.2914C252.063 64.3545 266.926 62.829 281.169 65.9377C295.412 69.0463 308.289 76.6264 317.92 87.5714C322.04 92.3866 327.541 95.8184 333.677 97.4018C339.813 98.9852 346.288 98.6435 352.223 96.4232L355.369 95.2208C359.911 93.509 363.979 90.7383 367.236 87.139C370.493 83.5396 372.844 79.2152 374.094 74.5249C375.345 69.8346 375.459 64.9136 374.427 60.1704C373.395 55.4272 371.246 50.9986 368.16 47.2523C349.855 25.5123 325.056 10.224 297.412 3.63795C269.768 -2.94806 240.74 -0.483736 214.602 10.6681C188.463 21.82 166.595 41.0702 152.217 65.5848C137.839 90.0993 131.71 118.583 134.733 146.843C137.756 175.102 149.771 201.644 169.01 222.562C188.248 243.48 213.693 257.667 241.599 263.036C269.505 268.405 298.397 264.672 324.022 252.386C349.647 240.101 370.651 219.911 383.942 194.791C395.019 173.94 379.338 148.741 355.804 148.741H355.088C349.388 148.596 343.758 150.014 338.807 152.842C333.856 155.67 329.773 159.799 327.001 164.781Z" fill="#111D5E"/>
<path d="M525.938 471.012L394.814 339.719C365.844 310.749 326.554 294.474 285.586 294.474C244.619 294.474 205.329 310.749 176.359 339.719L45.1579 471.012C16.2394 500.017 0 539.305 0 580.265C0 621.225 16.2394 660.514 45.1579 689.518L124.457 768.826L176.359 820.683C190.67 835.074 207.692 846.484 226.441 854.252C245.189 862.021 265.292 865.993 285.586 865.94C287.71 865.94 289.756 865.94 291.802 865.786C330.608 864.327 367.419 848.21 394.814 820.683L525.938 689.544C530.9 684.612 535.499 679.328 539.7 673.733C562.243 643.967 573.266 607.053 570.737 569.798C568.208 532.543 552.297 497.458 525.938 471.012ZM439.272 602.842L308.148 733.982C306.592 735.531 304.878 736.912 303.032 738.101C302.393 738.536 301.753 738.868 301.114 739.226C300.772 739.452 300.413 739.649 300.039 739.815C299.471 740.13 298.881 740.403 298.274 740.633C297.79 740.888 297.285 741.102 296.765 741.273L296.126 741.529L295.639 741.682L295.153 741.81C294.659 742.011 294.145 742.157 293.619 742.245L292.928 742.399C292.595 742.399 292.212 742.552 291.802 742.655C290.966 742.883 290.109 743.029 289.244 743.09L287.786 743.243C287.045 743.243 286.354 743.243 285.612 743.243C277.188 743.151 269.127 739.794 263.127 733.88L189.737 660.763L131.824 602.842C125.855 596.845 122.504 588.727 122.504 580.265C122.504 571.803 125.855 563.686 131.824 557.688L262.999 426.498C265.962 423.529 269.481 421.175 273.354 419.568C277.228 417.962 281.38 417.135 285.574 417.135C289.767 417.135 293.919 417.962 297.793 419.568C301.667 421.175 305.185 423.529 308.148 426.498L439.272 557.688C444.62 563.023 447.891 570.089 448.501 577.619C449.11 585.148 447.018 592.649 442.598 598.775C441.638 600.245 440.523 601.609 439.272 602.842Z" fill="#111D5E"/>
<path d="M539.598 673.708C535.397 679.302 530.798 684.586 525.836 689.518L394.814 820.683C367.412 848.215 330.592 864.333 291.777 865.786C289.731 865.786 287.684 865.94 285.561 865.94C265.271 865.99 245.173 862.016 226.429 854.247C207.685 846.479 190.667 835.071 176.359 820.683L124.431 768.749C144.25 731.61 166.05 695.562 189.737 660.763L262.999 733.982C269 739.897 277.06 743.253 285.484 743.345C286.226 743.345 286.917 743.345 287.659 743.345L289.117 743.192L291.675 742.757C292.084 742.757 292.468 742.603 292.8 742.501L293.491 742.348C294.017 742.259 294.531 742.113 295.026 741.913L295.512 741.785L295.998 741.631L296.637 741.375C297.157 741.204 297.662 740.99 298.146 740.736C298.754 740.505 299.343 740.232 299.912 739.917C300.285 739.751 300.645 739.554 300.986 739.329C301.625 738.971 302.265 738.638 302.904 738.203C304.75 737.014 306.465 735.633 308.02 734.084L439.145 602.945C440.395 601.711 441.51 600.348 442.47 598.877L468.664 602.945L539.598 673.708Z" fill="#111D5E"/>
<path d="M862.958 470.987L731.783 339.847C717.438 325.499 700.407 314.117 681.664 306.351C662.92 298.586 642.83 294.589 622.542 294.589C602.254 294.589 582.165 298.586 563.421 306.351C544.677 314.117 527.647 325.499 513.302 339.847L454.084 399.124L525.939 470.987C530.9 475.91 535.499 481.185 539.701 486.772L599.993 426.549C602.956 423.581 606.475 421.226 610.348 419.619C614.222 418.013 618.374 417.186 622.568 417.186C626.761 417.186 630.914 418.013 634.787 419.619C638.661 421.226 642.18 423.581 645.142 426.549L776.267 557.663C779.235 560.628 781.59 564.149 783.197 568.025C784.803 571.902 785.63 576.056 785.63 580.253C785.63 584.449 784.803 588.603 783.197 592.48C781.59 596.356 779.235 599.877 776.267 602.842L645.142 733.982C642.18 736.95 638.661 739.305 634.787 740.911C630.914 742.518 626.761 743.345 622.568 743.345C618.374 743.345 614.222 742.518 610.348 740.911C606.475 739.305 602.956 736.95 599.993 733.982L539.752 673.733L468.869 602.894C465.796 599.83 463.388 596.165 461.795 592.129C460.201 588.092 459.457 583.771 459.609 579.434C453.93 573.422 448.175 567.435 442.573 561.526C441.588 560.151 440.493 558.859 439.298 557.663L423.08 541.494C422.492 540.931 421.929 540.292 421.341 539.729C391.745 509.566 368.467 486.772 368.467 486.772C348.056 513.651 337.006 546.475 337.006 580.227C337.006 613.979 348.056 646.803 368.467 673.682C372.683 679.265 377.281 684.547 382.229 689.493L480.278 787.553L513.302 820.683C527.647 835.032 544.677 846.414 563.421 854.179C582.165 861.945 602.254 865.942 622.542 865.942C642.83 865.942 662.92 861.945 681.664 854.179C700.407 846.414 717.438 835.032 731.783 820.683L862.958 689.493C891.889 660.495 908.137 621.204 908.137 580.24C908.137 539.276 891.889 499.984 862.958 470.987Z" fill="#CB0404"/>
<path d="M1202.87 470.961L1071.67 339.873C1057.33 325.509 1040.3 314.114 1021.56 306.339C1002.81 298.564 982.719 294.562 962.427 294.562C942.134 294.562 922.04 298.564 903.295 306.339C884.55 314.114 867.523 325.509 853.186 339.873L792.484 400.556L862.881 470.961C868.331 476.41 873.375 482.25 877.973 488.434L939.852 426.549C942.815 423.581 946.334 421.226 950.207 419.619C954.081 418.013 958.233 417.186 962.427 417.186C966.62 417.186 970.772 418.013 974.646 419.619C978.519 421.226 982.038 423.581 985.001 426.549L1116.13 557.688C1122.09 563.686 1125.44 571.803 1125.44 580.265C1125.44 588.727 1122.09 596.845 1116.13 602.842L985.001 733.982C982.038 736.95 978.519 739.305 974.646 740.911C970.772 742.518 966.62 743.345 962.427 743.345C958.233 743.345 954.081 742.518 950.207 740.911C946.334 739.305 942.815 736.95 939.852 733.982L884.368 678.441L878.05 672.173L808.804 602.919C803.341 597.444 800.05 590.171 799.544 582.453C792.996 575.545 786.371 568.74 779.924 562.114C778.879 560.548 777.679 559.091 776.343 557.765L743.293 524.763L737.129 518.546L731.347 512.764C720.374 501.687 712.188 493.577 708.811 490.276L707.097 488.511C685.038 518.241 674.422 554.922 677.193 591.84C679.965 628.758 695.938 663.442 722.19 689.544L792.663 760.026L822.132 789.497L853.263 820.683C867.598 835.036 884.621 846.421 903.359 854.19C922.096 861.958 942.181 865.956 962.465 865.956C982.749 865.956 1002.83 861.958 1021.57 854.19C1040.31 846.421 1057.33 835.036 1071.67 820.683L1202.79 689.493C1231.73 660.498 1247.99 621.209 1248 580.243C1248.01 539.277 1231.78 499.977 1202.87 470.961Z" fill="#F37121"/>
<path d="M962.516 417.185C958.318 417.171 954.16 417.991 950.282 419.599C946.405 421.206 942.885 423.569 939.929 426.549L878.05 488.434C873.452 482.25 868.408 476.41 862.958 470.961L792.561 400.556L853.263 339.873C874.349 318.759 901.1 304.206 930.28 297.972C959.46 291.738 989.821 294.092 1017.69 304.747C1077.58 363.486 962.516 417.185 962.516 417.185Z" fill="#F4631E"/>
<path d="M902.07 100.644C908.899 87.763 919.665 77.4016 932.798 71.0724C945.931 64.7432 960.743 62.7776 975.072 65.4625C989.401 68.1474 1002.5 75.3422 1012.45 85.9968C1022.4 96.6514 1028.69 110.208 1030.39 124.688C1032.09 139.168 1029.12 153.814 1021.91 166.487C1014.71 179.16 1003.64 189.198 990.323 195.135C977.008 201.071 962.145 202.597 947.902 199.488C933.659 196.38 920.782 188.8 911.151 177.855C907.031 173.039 901.53 169.608 895.394 168.024C889.258 166.441 882.783 166.782 876.848 169.003L873.676 170.205C869.134 171.917 865.066 174.688 861.809 178.287C858.553 181.886 856.202 186.211 854.951 190.901C853.7 195.591 853.586 200.512 854.619 205.256C855.651 209.999 857.799 214.427 860.886 218.174C879.19 239.914 903.989 255.202 931.633 261.788C959.277 268.374 988.305 265.91 1014.44 254.758C1040.58 243.606 1062.45 224.356 1076.83 199.841C1091.21 175.327 1097.34 146.843 1094.31 118.583C1091.29 90.3238 1079.27 63.7815 1060.04 42.8639C1040.8 21.9463 1015.35 7.75867 987.446 2.38957C959.541 -2.97953 930.648 0.753631 905.023 13.0395C879.398 25.3253 858.394 45.5147 845.103 70.6354C834.026 91.4857 849.707 116.685 873.241 116.685H873.932C879.639 116.837 885.28 115.422 890.24 112.594C895.2 109.766 899.292 105.633 902.07 100.644Z" fill="#F37121"/>
<path d="M177.766 1040.16L90.0768 1136.35H177.766V1188.06H20.7288V1132.8L111.334 1033.02H21.8031V981.576H177.843L177.766 1040.16Z" fill="#CB0404"/>
<path d="M274.28 1032.61V1058.81H367.52V1110.49H274.28V1136.35H380.285V1188.36H220.28V981.141L380.285 980.834V1032.51L274.28 1032.61Z" fill="#CB0404"/>
<path d="M501.969 978.634C512.767 978.567 523.463 980.736 533.382 985.004C552.63 993.133 567.947 1008.45 576.075 1027.7C580.351 1037.62 582.528 1048.32 582.47 1059.12V1189.59H528.752V1059.12C528.752 1051.99 525.922 1045.16 520.885 1040.12C515.848 1035.09 509.016 1032.26 501.893 1032.26C494.769 1032.26 487.937 1035.09 482.9 1040.12C477.863 1045.16 475.033 1051.99 475.033 1059.12V1189.59H421.315V1059.12C421.249 1048.32 423.417 1037.62 427.684 1027.7C435.869 1008.44 451.239 993.121 470.531 985.004C480.459 980.733 491.163 978.564 501.969 978.634Z" fill="#CB0404"/>
<path d="M771.56 981.576V1033.02H720.527V1188.06H666.809V1033.02H615.827V981.576H771.56Z" fill="#CB0404"/>
<path d="M985.87 1188.06H919.362L871.604 1120.98H861.141V1188.36H807.423V981.857L907.186 981.525C916.53 981.478 925.782 983.377 934.352 987.102C951.22 994.239 964.675 1007.62 971.904 1024.45C975.57 1032.92 977.494 1042.04 977.561 1051.26C977.628 1060.49 975.837 1069.63 972.294 1078.15C968.752 1086.67 963.53 1094.39 956.941 1100.84C950.352 1107.3 942.53 1112.37 933.943 1115.73L985.87 1188.06ZM923.685 1051.26C923.735 1048.87 923.28 1046.5 922.35 1044.29C921.42 1042.09 920.036 1040.11 918.288 1038.47C916.584 1036.8 914.563 1035.49 912.345 1034.61C910.127 1033.73 907.755 1033.31 905.369 1033.36H861.218V1069.35H905.395C907.79 1069.39 910.167 1068.94 912.385 1068.04C914.604 1067.14 916.62 1065.8 918.313 1064.11C920.062 1062.47 921.445 1060.47 922.37 1058.26C923.296 1056.05 923.744 1053.66 923.685 1051.26Z" fill="#CB0404"/>
<path d="M1120.99 978.634C1135.15 978.549 1149.18 981.388 1162.2 986.974C1174.81 992.37 1186.3 1000.08 1196.06 1009.72C1205.8 1019.37 1213.57 1030.81 1218.96 1043.41C1224.46 1056.46 1227.3 1070.48 1227.3 1084.65C1227.3 1098.82 1224.46 1112.84 1218.96 1125.89C1208.04 1151.41 1187.71 1171.74 1162.2 1182.66C1149.15 1188.16 1135.13 1191 1120.97 1191C1106.81 1191 1092.8 1188.16 1079.75 1182.66C1067.14 1177.24 1055.69 1169.42 1046.06 1159.63C1036.42 1149.88 1028.71 1138.4 1023.32 1125.79C1017.82 1112.74 1014.98 1098.71 1014.98 1084.55C1014.98 1070.38 1017.82 1056.36 1023.32 1043.31C1034.14 1017.94 1054.37 997.753 1079.75 986.974C1092.77 981.385 1106.81 978.546 1120.99 978.634ZM1120.99 1134.38C1127.78 1134.42 1134.51 1133.09 1140.78 1130.47C1146.8 1127.97 1152.29 1124.36 1156.98 1119.83C1161.59 1115.28 1165.31 1109.9 1167.93 1103.97C1170.62 1097.86 1172.02 1091.25 1172.02 1084.57C1172.02 1077.9 1170.62 1071.29 1167.93 1065.18C1162.59 1053.23 1152.85 1043.79 1140.73 1038.83C1128.05 1033.61 1113.82 1033.61 1101.14 1038.83C1095.12 1041.33 1089.62 1044.94 1084.94 1049.47C1080.36 1053.96 1076.69 1059.29 1074.15 1065.18C1071.55 1071.32 1070.21 1077.91 1070.21 1084.57C1070.21 1091.24 1071.55 1097.83 1074.15 1103.97C1076.66 1109.91 1080.33 1115.31 1084.94 1119.83C1089.62 1124.36 1095.12 1127.97 1101.14 1130.47C1107.42 1133.1 1114.17 1134.43 1120.99 1134.38Z" fill="#CB0404"/>
</svg>
