<svg width="121" height="120" viewBox="0 0 121 120" fill="none" xmlns="http://www.w3.org/2000/svg">
<path fill-rule="evenodd" clip-rule="evenodd" d="M88.375 38.8873C90.0521 40.5576 90.0576 43.2711 88.3873 44.9482L52.2757 81.2066C50.6055 82.8836 47.892 82.8891 46.215 81.219L33.0453 68.1039C31.3681 66.4337 31.3625 63.7202 33.0327 62.043C34.7028 60.3658 37.4164 60.3602 39.0936 62.0304L49.2267 72.1215L82.3141 38.8996C83.9844 37.2225 86.6979 37.217 88.375 38.8873Z" fill="#EA454C"/>
<path fill-rule="evenodd" clip-rule="evenodd" d="M60.25 12.2301C37.5325 12.2301 18.4742 28.0931 13.582 49.3437L13.582 49.3437C12.7856 52.8027 12.3639 56.4081 12.3639 60.1162C12.3639 86.5429 33.8233 108.002 60.25 108.002C86.6767 108.002 108.136 86.5429 108.136 60.1162C108.136 33.6895 86.6767 12.2301 60.25 12.2301ZM5.22905 47.4207C10.9965 22.3683 33.4486 3.65869 60.25 3.65869C91.4106 3.65869 116.708 28.9557 116.708 60.1162C116.708 91.2768 91.4106 116.574 60.25 116.574C29.0894 116.574 3.79248 91.2768 3.79248 60.1162C3.79248 55.7562 4.28855 51.5057 5.22905 47.4207Z" fill="#F0B3B5"/>
</svg>
