<svg width="24" height="24" viewBox="0 0 24 24" fill="#fff" xmlns="http://www.w3.org/2000/svg">
<g clip-path="url(#clip0_4418_7534)">
<path d="M8 5.75C7.59 5.75 7.25 5.41 7.25 5V2C7.25 1.59 7.59 1.25 8 1.25C8.41 1.25 8.75 1.59 8.75 2V5C8.75 5.41 8.41 5.75 8 5.75Z"/>
<path d="M16 5.75C15.59 5.75 15.25 5.41 15.25 5V2C15.25 1.59 15.59 1.25 16 1.25C16.41 1.25 16.75 1.59 16.75 2V5C16.75 5.41 16.41 5.75 16 5.75Z"/>
<path d="M20.5 9.83984H3.5C3.09 9.83984 2.75 9.49984 2.75 9.08984C2.75 8.67984 3.09 8.33984 3.5 8.33984H20.5C20.91 8.33984 21.25 8.67984 21.25 9.08984C21.25 9.49984 20.91 9.83984 20.5 9.83984Z"/>
<path d="M16 22.75H8C4.35 22.75 2.25 20.65 2.25 17V8.5C2.25 4.85 4.35 2.75 8 2.75H16C19.65 2.75 21.75 4.85 21.75 8.5V17C21.75 20.65 19.65 22.75 16 22.75ZM8 4.25C5.14 4.25 3.75 5.64 3.75 8.5V17C3.75 19.86 5.14 21.25 8 21.25H16C18.86 21.25 20.25 19.86 20.25 17V8.5C20.25 5.64 18.86 4.25 16 4.25H8Z"/>
<path d="M8.5 14.5C8.37 14.5 8.24 14.47 8.12 14.42C8 14.37 7.89001 14.3 7.79001 14.21C7.70001 14.11 7.62999 14 7.57999 13.88C7.52999 13.76 7.5 13.63 7.5 13.5C7.5 13.24 7.61001 12.98 7.79001 12.79C7.89001 12.7 8 12.63 8.12 12.58C8.3 12.5 8.50001 12.48 8.70001 12.52C8.76001 12.53 8.82 12.55 8.88 12.58C8.94 12.6 9 12.63 9.06 12.67C9.11 12.71 9.15999 12.75 9.20999 12.79C9.24999 12.84 9.29999 12.89 9.32999 12.94C9.36999 13 9.40001 13.06 9.42001 13.12C9.45001 13.18 9.47001 13.24 9.48001 13.3C9.49001 13.37 9.5 13.43 9.5 13.5C9.5 13.76 9.38999 14.02 9.20999 14.21C9.01999 14.39 8.76 14.5 8.5 14.5Z"/>
<path d="M12 14.5008C11.74 14.5008 11.48 14.3908 11.29 14.2108C11.25 14.1608 11.21 14.1108 11.17 14.0608C11.13 14.0008 11.1 13.9409 11.08 13.8809C11.05 13.8209 11.03 13.7609 11.02 13.7009C11.01 13.6309 11 13.5708 11 13.5008C11 13.3708 11.03 13.2408 11.08 13.1208C11.13 13.0008 11.2 12.8909 11.29 12.7909C11.57 12.5109 12.02 12.4208 12.38 12.5808C12.51 12.6308 12.61 12.7009 12.71 12.7909C12.89 12.9809 13 13.2408 13 13.5008C13 13.5708 12.99 13.6309 12.98 13.7009C12.97 13.7609 12.95 13.8209 12.92 13.8809C12.9 13.9409 12.87 14.0008 12.83 14.0608C12.79 14.1108 12.75 14.1608 12.71 14.2108C12.61 14.3008 12.51 14.3709 12.38 14.4209C12.26 14.4709 12.13 14.5008 12 14.5008Z"/>
<path d="M8.5 18.0008C8.37 18.0008 8.24 17.9709 8.12 17.9209C8 17.8709 7.89001 17.8008 7.79001 17.7108C7.70001 17.6108 7.62999 17.5109 7.57999 17.3809C7.52999 17.2609 7.5 17.1308 7.5 17.0008C7.5 16.7408 7.61001 16.4809 7.79001 16.2909C7.89001 16.2009 8 16.1308 8.12 16.0808C8.49 15.9208 8.92999 16.0109 9.20999 16.2909C9.24999 16.3409 9.29999 16.3909 9.32999 16.4409C9.36999 16.5009 9.40001 16.5608 9.42001 16.6208C9.45001 16.6808 9.47001 16.7408 9.48001 16.8108C9.49001 16.8708 9.5 16.9408 9.5 17.0008C9.5 17.2608 9.38999 17.5208 9.20999 17.7108C9.01999 17.8908 8.76 18.0008 8.5 18.0008Z"/>
</g>
<defs>
<clipPath id="clip0_4418_7534">
<rect width="24" height="24" fill="white"/>
</clipPath>
</defs>
</svg>